<svg xmlns="http://www.w3.org/2000/svg" height="380.847" width="317.05" version="1">
  <path d="M22.402 316.465c2.657-2.213 6.641-5.313 11.954-4.87 5.313.443 17.268 1.328 21.695.443 4.428-.886 7.97.443 9.298-3.1 1.328-3.541 1.771-15.053 5.313-19.48 3.542-4.428 13.283-9.298 14.611-13.726 1.328-4.427 1.771-6.198 0-10.626-1.771-4.428-5.756-8.412-11.512-11.069-5.755-2.656-11.068-4.427-11.068-4.427s-11.512 10.626-11.955 13.282c-.443 2.657.886 5.313-1.77 6.642-2.657 1.328-7.085-2.657-7.97-9.741-.886-7.084 2.213-15.496 1.77-20.367-.442-4.87-3.541-9.298-.885-14.168 2.657-4.87 8.855-12.397 13.725-15.939 4.87-3.542 13.283-3.985 14.611-8.412 1.329-4.428-8.412-21.252-8.412-25.237 0-3.985 1.328-11.512-1.771-17.71-3.1-6.199-6.641-19.481-19.924-27.894-13.282-8.412-22.58-11.954-24.794-18.153-2.214-6.198-.443-6.198 2.214-7.97 2.656-1.77-7.084-11.954-10.184-21.694-3.099-9.74-8.412-29.222-6.198-30.993 2.214-1.77 8.855 0 10.183 3.542 1.328 3.542 6.641 25.237 6.641 25.237s-1.328-16.382.886-21.252c2.214-4.87 4.87-9.74 7.527-8.412 2.656 1.328 1.328 30.107 1.328 30.107s2.657-6.641 4.428-10.626c1.77-3.985 3.099-7.527 5.313-5.313 2.213 2.213.442 23.466.442 23.466s3.542-5.313 6.199-6.642c2.656-1.328 3.985-2.213 5.756.886 1.77 3.1 1.328 7.084 1.328 7.084s1.328-4.428 4.427-4.428c3.1 0 7.085 1.329 5.756 4.87-1.328 3.543 11.955.443 11.07 6.642-.886 6.199 0 11.954 3.541 11.954 3.542 0 5.756 4.87 12.84 3.1 4.428 2.656-2.214 19.038.885 16.824 3.1-2.214 10.184-3.985 12.84.886 2.657 4.87-3.542 10.626 0 15.053 3.542 4.428 0 8.413 5.313 11.955s5.756.885 7.084 8.855c1.329 7.97 1.329 11.511 3.542 14.61 2.214 3.1 4.87 5.314 4.428 11.955-.443 6.641-4.428 12.84.886 11.954 5.313-.885 7.526-6.198 11.511-8.412 3.985-2.214 4.87-2.657 10.183-6.641 5.313-3.985 6.199-9.298 9.298-10.626 3.1-1.329 5.756-.886 10.184-2.657 4.427-1.77 8.855-5.756 11.068-7.527 2.214-1.77 2.214-2.656 6.199-6.198 3.985-3.542 7.97-5.756 10.626-11.512 2.657-5.756 2.214-6.198 5.313-14.61 3.1-8.413 2.214-11.07 3.985-14.612 1.77-3.542 1.77-6.64 4.87-9.74 3.1-3.1 5.756-6.641 6.199-3.542.442 3.1.442 7.527.442 10.183 0 2.657 3.985-3.985 7.527-10.626 3.542-6.641 1.771-7.527 3.1-13.283 1.328-5.755 0-9.74.442-16.381.443-6.642 1.329-7.084 1.771-16.825.443-9.74 1.23-11.376 1.23-18.46 0-7.084-.257-9.95-.344-15.19 1.537-4.02 3.26-5.25 4.427-4.87 1.439.381 3.37.406 4.526 5.756.886 5.756 1.685 10.048 2.558 20.81-.885 10.626-1.328 19.924.443 22.58 1.771 2.657 3.1 2.214 4.428-.885 1.328-3.1 1.328-4.428 3.099-9.741 1.771-5.313 1.66-8.795 2.57-16.21-.443-11.069.086-16.111.53-24.523.442-8.413-.05-8.658.885-13.726.799-4.796 1.918-5.94 5.756-5.313 2.213 2.657 2.656 9.298 3.542 15.054.885 5.756.885 5.313 1.328 15.939.443 10.626.062 14.868-.824 18.41-.209 3.948-.996 7.871-.504 9.483 2.656-1.77 2.656-4.87 5.313-11.068 2.656-6.199 4.87-11.512 5.755-18.596.886-7.084 3.248-9.679 4.76-17.476 3.542-7.527 4.317-9.347 6.752-9.532 2.57 1.845 3.788 3.505 3.542 9.298-1.328 6.198-1.328 9.298-3.542 15.496-2.214 6.199-1.771 8.855-4.87 15.497-1.882 5.829-2.114 7.809-3.1 9.74 4.428.443 4.366-1.316 7.084-4.427 4.478-8.524 2.78-6.728 4.428-9.298 2.46-5.141 4.563-7.034 6.641-6.199 2.214 3.542 3.1 4.428 1.329 8.413-1.771 3.984-.443 1.328-3.1 7.084-2.656 5.755-5.313 7.97-1.77 7.526 3.541-.442 3.984 0 6.198-3.542 2.214-3.542 0-3.984 4.87-6.198 4.87-2.214 7.97-6.199 9.298-3.1 1.328 3.1 1.77 2.657-1.328 7.085-3.1 4.427-6.199 5.755-4.87 7.97 1.328 2.213 4.87 2.656 7.526 2.656 2.657 0 3.1.442 1.771 4.87-1.328 4.428-1.77 4.428-2.214 6.641-.442 2.214 1.771 3.985 1.771 3.985s3.985-2.656.886 3.985c-3.1 6.641-4.87 4.87-6.641 7.97-1.771 3.099-3.542 6.198-.886 6.198 2.657 0 5.313-.443 4.87 1.771-.442 2.214-4.427 4.427-2.213 5.756 2.213 1.328 3.984-.443 5.755 1.328 1.771 1.771 0 4.87 0 7.084 0 2.214-.442 3.985.443 6.199.886 2.213 2.657 4.427 1.328 6.64-1.328 2.215.443 2.657-3.099 4.871-3.542 2.214-5.756 1.771-5.756 3.985s-.442 1.771 1.771 3.542c2.214 1.771 4.87.443 3.1 4.428-1.771 3.984-1.329 3.542-2.214 7.084-.886 3.542.443 1.77-3.542 10.183-3.985 8.412-7.97 14.61-11.954 16.825-3.985 2.213-3.1 7.084-.443 7.97 2.656.885 3.1 4.87.443 10.625-2.657 5.756-5.756 13.283-6.642 17.268-.885 3.984-1.77 4.427-6.198 9.297-4.428 4.87-7.97 9.298-11.955 10.626-3.984 1.329-4.427 5.756-7.084 7.97-2.656 2.214-3.542 3.542-9.298 3.542-5.755 0-5.755-1.328-11.511.443-5.756 1.77-8.412 3.542-8.855 6.198-.443 2.657-2.214 3.985-5.756 3.1-3.542-.886-.885 1.77-5.313 3.542-4.428 1.77-3.1 3.984-8.412 3.542-5.313-.443-7.97-4.428-9.298 0-1.328 4.427-1.771 7.97-7.527 3.984-5.756-3.984-8.855-14.61-11.954-3.542-3.1 11.07-3.1 13.726.442 16.825 3.543 3.1 4.428 5.756 12.398 8.855 7.97 3.1 7.97 6.641 13.725 8.855 5.756 2.214 6.198 3.1 15.054 7.527 8.855 4.428 11.068 5.756 16.381 8.855 5.313 3.1 6.642 6.199 7.97 9.298 1.328 3.1 7.084 6.641 4.87 11.069-2.214 4.427-6.641 1.77-6.641 3.985 0 2.213.885 3.984-.886 8.412-1.77 4.427-1.328 6.198-7.526 7.97-6.199 1.77-9.74 2.656-12.84 1.328-3.1-1.329-3.985 3.984-7.084 2.656-3.1-1.328-4.428-5.313-6.642-3.1-2.213 2.215 1.771 3.543-3.542 4.871-5.313 1.328-5.755-2.214-6.198.886-.443 3.099 1.328 6.198-4.428 3.099-5.755-3.1-3.984-9.298-8.412-4.87-4.428 4.427-2.214 9.74-10.183 5.313-7.97-4.428-5.313-4.87-11.512-4.428-6.198.443-6.198.886-8.412-3.985-2.214-4.87 2.214-3.542-7.527-3.984-9.74-.443-4.87 5.755-11.069-2.657-6.198-8.412-7.527-16.825-10.183-7.527-2.657 9.298 0 11.512-3.985 14.168-3.985 2.657-24.351 1.771-24.351 1.771s-.443 10.184-2.214 11.955c-1.771 1.77-6.199-1.771-10.183 1.77-3.985 3.543-1.329 5.757-4.87 8.856-3.543 3.1-10.627 3.542-10.627 3.542s4.87-3.985 6.199-7.527c1.328-3.542 3.099-9.74 3.099-9.74s-7.084 2.656-10.183 3.099c-3.1.443-7.97-.443-7.97-.443l1.328 10.183s-8.412 0-8.412-3.542 2.657-13.282 4.87-14.61c2.214-1.329 5.313-.886 5.313-.886s-.885-4.428 1.329-5.313c2.213-.886 3.542 0 7.084 0s19.48-4.87 19.48-4.87-.442-11.512 1.33-16.382c1.77-4.87 10.182-18.596 6.198-20.81-3.985-2.213-7.084-.442-9.298 1.771-2.214 2.214-6.199 8.855-14.611 10.626-8.412 1.771-15.054 2.657-15.054 2.657s-1.77.885-1.77 4.428c0 3.542 3.099 7.084-1.329 11.511-4.427 4.428-7.97 8.412-12.84 6.199-4.87-2.214-5.756-4.87-5.756-4.87s3.542 2.213 9.298.885 3.542-12.397 3.1-14.611c-.443-2.214-4.87-4.428-7.527-2.214s-6.199 7.97-3.985 10.184c2.214 2.213-6.199-4.87-5.756-7.97.443-3.1 1.771-5.313 1.771-5.313s-5.756 0-9.298-.443-6.198-2.214-6.198.443c0 2.656 1.77 14.61-2.214 7.084-3.985-7.527-5.756-9.298-1.771-13.283z" fillRule="evenodd" stroke="#000" strokeWidth="1pt"/>
</svg>